<svg xmlns="http://www.w3.org/2000/svg" width="177" height="30" viewBox="0 0 177 30">
    <g fill="none" fill-rule="evenodd">
        <path fill="#252061" d="M23.06 10.8c0 3.004.038 6.01-.014 9.014a10.667 10.667 0 0 1-1.785 5.768c-1.488 2.259-3.64 3.584-6.25 4.077-2.468.467-4.972.48-7.435-.12C3.425 28.527.926 25.45.2 21.454c-.162-.892-.198-1.787-.198-2.687L0 1.64c0-.09-.001-.18.001-.27.02-.773.02-.784.834-.788C2.523.573 4.21.579 5.898.579c.09 0 .18.005.27.004.405-.008.625.164.604.592-.01.21 0 .42 0 .63 0 5.65.003 11.299-.004 16.948 0 .725.046 1.44.245 2.14.717 2.526 2.677 3.42 4.957 3.25 3.338-.247 4.307-2.638 4.323-4.906.04-5.709.01-11.418.019-17.127.002-1.642-.255-1.528 1.557-1.531 1.416-.002 2.833-.004 4.249.001.949.003.956.008.957.935.003 3.095.001 6.19.001 9.285h-.017zM37.815.578c.991 0 1.982-.004 2.972.002.938.005.942.008 1.234.933 1.202 3.811 2.395 7.625 3.603 11.433 1.64 5.174 3.292 10.344 4.94 15.515.026.085.067.166.092.252.199.684.198.7-.52.704-1.801.01-3.602.006-5.404.002-.9-.002-.907-.006-1.157-.883-1.326-4.643-2.648-9.287-3.972-13.931-.482-1.692-.965-3.383-1.45-5.074-.049-.172-.112-.34-.174-.508-.043-.114-.105-.231-.252-.18a.324.324 0 0 0-.176.173c-.091.252-.164.511-.237.77-1.79 6.246-3.58 12.494-5.367 18.741-.254.885-.251.89-1.136.893-1.741.003-3.483.006-5.224-.002-.855-.004-.899-.055-.64-.872 1.158-3.668 2.33-7.331 3.493-10.999 1.684-5.315 3.362-10.633 5.044-15.95.32-1.013.322-1.015 1.36-1.018.99-.003 1.98 0 2.971 0"/>
        <path fill="#24A3D3" d="M79.112 17.315c1.818.036 1.275-.307 1.956 1.596.527 1.474.972 2.98 1.462 4.47.06.184.073.48.314.47.166-.009.188-.285.243-.45.58-1.745 1.148-3.494 1.726-5.24.28-.846.288-.845 1.176-.85.615-.002 1.23.012 1.843-.003.407-.01.646.08.676.588.074 1.239.212 2.473.314 3.71.17 2.051.336 4.103.495 6.155.046.605.046 1.213.102 1.817.03.339-.1.422-.392.417-.731-.011-1.463-.026-2.193.004-.447.018-.526-.203-.549-.6-.1-1.755-.223-3.507-.347-5.26-.01-.152.087-.409-.17-.424-.141-.008-.205.19-.255.332-.387 1.11-.792 2.214-1.15 3.333-.142.443-.35.65-.815.615a10.796 10.796 0 0 0-1.491 0c-.422.026-.63-.14-.764-.556-.324-1.005-.69-1.994-1.04-2.99-.06-.17-.109-.346-.185-.509-.047-.101-.098-.253-.234-.232-.14.02-.136.175-.131.287.037.823-.18 1.629-.168 2.447.014 1.005-.186 1.992-.19 2.993-.002.355-.081.573-.489.561a56 56 0 0 0-2.281-.002c-.338.004-.448-.107-.416-.485.236-2.806.441-5.614.669-8.42.088-1.087.22-2.169.306-3.255.031-.391.203-.53.556-.521.409.01.819.002 1.422.002M104.369 23.032c.08 3.47-2.634 6.405-6.59 6.391-3.816-.014-6.574-2.752-6.591-6.421-.017-3.538 2.816-6.197 6.576-6.21 3.837-.015 6.608 2.603 6.605 6.24zm-3.555.04c.001-1.674-1.275-2.88-3.042-2.873-1.732.006-3.036 1.23-3.028 2.86.008 1.69 1.278 2.95 3.035 2.957 1.822.006 3.071-1.346 3.035-2.943zM106.163 23.678c0-1.852-.005-3.704.002-5.556.003-.798.014-.813.787-.814 1.467-.002 2.935.02 4.402.02.478 0 .933.113 1.373.275 2.145.79 2.838 3.236 1.445 5.104-.24.32-.533.53-.005.908 1.865 1.334 1.525 4.586-.592 5.698-.86.452-1.78.622-2.713.661-1.348.058-2.7-.003-4.05.025-.497.01-.673-.158-.657-.674.03-.94.008-1.882.008-2.823v-2.824zm3.895-1.758c.198-.015.429-.002.641-.054.353-.087.574-.319.629-.663.052-.33.009-.656-.329-.83-.545-.282-1.138-.166-1.717-.1-.06.006-.145.099-.156.162-.077.44-.173.904.053 1.308.167.3.562.122.879.177zm.272 2.89c-.276 0-.45.003-.622-.002-.378-.011-.655.138-.6.53.08.566-.386 1.335.37 1.653.5.21 1.135.129 1.698-.051.51-.163.719-.544.746-1.024.026-.466-.28-.835-.757-1.017-.307-.117-.624-.081-.835-.09zM155.194 6.893c0-1.851-.005-3.702.002-5.554.003-.74.016-.743.733-.752a78.232 78.232 0 0 1 1.654 0c.768.006.774.009.778.784.007 1.153-.006 2.307.005 3.46.007.741.047.788.732.802.87.018 1.741.017 2.611 0 .72-.013.762-.064.769-.86.008-1.153-.004-2.306.005-3.46.005-.708.015-.715.66-.725.609-.01 1.22.02 1.827-.01.466-.022.626.191.605.644-.014.303 0 .607 0 .91 0 3.37.001 6.738-.002 10.107-.001 1.013-.008 1.015-.957 1.022-.464.004-.929.009-1.393-.001-.724-.016-.734-.02-.74-.758-.01-1.093.006-2.186-.007-3.278-.008-.742-.021-.752-.745-.762-.87-.012-1.741-.01-2.611 0-.741.009-.749.018-.755.838-.008 1.093-.021 2.186.006 3.278.012.51-.159.713-.649.69-.58-.028-1.16 0-1.74-.008-.771-.011-.783-.017-.786-.813-.007-1.851-.002-3.703-.002-5.554M163.845 23.709c0 1.82.003 3.64-.002 5.46-.002.809-.01.813-.748.82-.582.007-1.165-.024-1.745.009-.474.026-.607-.197-.601-.645.013-1.093.008-2.185 0-3.277-.006-.99-.013-.992-.992-.996-.815-.003-1.629-.01-2.443.003-.692.01-.74.053-.752.786-.017 1.122.003 2.245-.009 3.367-.008.739-.021.744-.745.753-.64.007-1.28-.006-1.92.001-.29.003-.432-.124-.423-.43.005-.152-.003-.304-.003-.456 0-3.61-.001-7.22 0-10.83.001-.952.006-.954.9-.96.495-.005.99-.012 1.484.002.665.02.696.041.705.725.016 1.092-.001 2.185.008 3.277.008.938.023.95.948.955.843.004 1.687.012 2.53-.004.624-.012.696-.08.708-.743.019-1.091.002-2.184.008-3.276.006-.922.011-.925.858-.936.465-.007.93-.006 1.396 0 .83.01.835.012.837.934.003 1.82.001 3.64.001 5.46M140.194 23.601c0-1.79-.005-3.579.002-5.368.004-.899.018-.906.888-.917.525-.006 1.05.02 1.574-.006.482-.025.676.153.663.676-.029 1.122-.013 2.245-.007 3.367.006.908.012.913.877.921.758.008 1.516.005 2.274.002.98-.005.983-.007.987-.99.004-1.092.019-2.184-.007-3.276-.011-.496.134-.725.64-.7.61.029 1.224.025 1.835.002.502-.02.665.225.657.714-.017.94-.004 1.88-.004 2.82 0 2.73.003 5.46-.001 8.19-.001.95-.009.952-.914.956-.553.003-1.108-.02-1.66.006-.427.021-.557-.162-.55-.586.018-1.152.011-2.305.003-3.458-.007-.852-.016-.861-.831-.87-.816-.009-1.633-.008-2.449 0-.847.008-.852.013-.857.936-.006 1.092.006 2.184-.004 3.275-.006.68-.017.685-.691.696a65.69 65.69 0 0 1-1.575 0c-.84-.006-.846-.008-.849-.93-.005-1.82-.001-3.64-.001-5.46M112.502 6.902c0-1.85-.006-3.702.003-5.553.003-.753.017-.767.733-.768 2.975-.006 5.95-.005 8.925 0 .705.001.717.014.718.771.005 3.703.005 7.405 0 11.107-.002.788-.015.791-.801.806-.412.008-.825.003-1.237.001-1.077-.003-1.08-.003-1.081-1.077-.002-2.458-.004-4.916 0-7.374.003-1.55.035-1.41-1.412-1.413-.589-.001-1.178-.005-1.767 0-.926.01-.953.031-.955.963-.005 2.58.002 5.159-.004 7.738-.003 1.194.16 1.164-1.161 1.164-.353 0-.707.003-1.06-.002-.887-.01-.896-.012-.9-.9-.006-1.821-.001-3.642-.001-5.463M175.96 23.695c0 1.82.005 3.639-.003 5.458-.003.8-.016.803-.79.811-.562.007-1.126-.024-1.687.01-.488.029-.691-.13-.673-.659.032-.94.015-1.88.003-2.82-.003-.255.085-.587-.273-.682-.375-.1-.684-.016-.893.376-.552 1.037-1.156 2.047-1.68 3.098-.27.54-.61.742-1.192.69-.588-.052-1.184.001-1.776-.017-.28-.009-.661.155-.814-.124-.121-.22.181-.476.311-.705.64-1.125 1.276-2.254 1.954-3.356.284-.462.301-.725-.148-1.132-1.41-1.28-1.789-3.63-.91-5.338.608-1.184 1.58-1.896 2.898-1.946 1.656-.062 3.316-.051 4.973-.05.656 0 .69.043.695.745.012 1.88.004 3.76.004 5.64zm-2.908-2.136c0-1.387-.122-1.484-1.655-1.293-.158.02-.314.061-.466.108a1 1 0 0 0-.573.446c-.278.454-.195 1.363.166 1.75.37.397 1.556.659 2.176.41.641-.26.246-.825.35-1.246.014-.056.002-.117.002-.175zM141.344 6.918c0 1.832.006 3.664-.002 5.496-.004.688-.018.698-.708.713-.63.014-1.26.015-1.89 0-.672-.016-.686-.027-.688-.732-.006-2.552-.002-5.105-.003-7.658 0-1.417 0-1.417-1.372-1.346-.699.037-.737.06-.737.81.001 1.713-.112 3.413-.536 5.079-.27 1.06-.711 2.039-1.524 2.807-.822.776-1.81 1.138-2.93 1.181-.384.015-.554-.15-.552-.524.002-.36.008-.722-.007-1.081-.033-.735-.043-1.313.905-1.653.983-.353 1.15-1.452 1.336-2.405.3-1.546.157-3.111.187-4.669.01-.6.012-1.201-.001-1.802-.008-.354.074-.559.493-.557 2.52.012 5.039.013 7.559 0 .52-.002.47.332.47.665v5.676M127.499 23.7c0 1.843.004 3.686-.003 5.53-.002.692-.015.699-.687.709-.595.009-1.19.006-1.785.001-.78-.007-.79-.01-.79-.788-.005-2.326-.002-4.653-.002-6.98 0-.242.019-.485-.005-.725-.04-.41.206-.975-.154-1.195-.477-.291-1.1-.116-1.658-.086-.29.016-.281.276-.274.481.038 1.03-.101 2.049-.165 3.072-.076 1.216-.315 2.395-.809 3.5-.761 1.706-2.039 2.696-3.94 2.78-.51.021-.718-.147-.675-.662.022-.27.015-.545.001-.816-.04-.795-.074-1.438.96-1.794 1.022-.351 1.166-1.516 1.338-2.502.325-1.858.148-3.737.188-5.606.03-1.412-.215-1.304 1.289-1.308 2.112-.004 4.225-.005 6.338.001.823.003.83.013.831.858.005 1.843.002 3.687.002 5.53M144.24 6.855c0-1.819-.004-3.637 0-5.456.003-.806.01-.81.755-.817a74.025 74.025 0 0 1 1.766 0c.698.01.703.015.71.773.005.757-.005 1.515.002 2.273.007.837.012.839.852.862.47.013.943-.007 1.412.029 1.739.132 2.963 1.142 3.484 2.85.346 1.137.328 2.276-.113 3.37-.616 1.527-1.722 2.447-3.365 2.498-1.616.05-3.235.007-4.853.032-.494.007-.665-.174-.66-.687.023-1.909.01-3.818.01-5.727zm2.902 1.504v.329c.024 1.219-.2 1.094 1.29 1.12.602.01 1.08-.152 1.36-.647.315-.558.267-1.116-.107-1.636-.327-.455-1.457-.739-2.166-.535-.695.2-.255.746-.373 1.124-.024.076-.004.163-.004.245zM130.392 23.634c0-1.85-.005-3.702.002-5.552.003-.748.015-.765.74-.768 2.13-.009 4.258-.009 6.387 0 .722.004.726.02.737.77.007.515-.016 1.032.005 1.547.017.402-.155.526-.526.52a153.904 153.904 0 0 0-3.37 0c-.722.007-.723.018-.74.766-.004.182.016.366-.002.546-.054.534.207.676.68.66.74-.026 1.479-.014 2.218-.004.7.01.712.022.73.697.015.515-.007 1.032.003 1.547.009.426-.186.6-.59.595-.74-.009-1.48-.01-2.218.005-.777.016-.802.052-.822.817-.035 1.375-.035 1.375 1.345 1.376.916 0 1.833-.009 2.75.004.714.01.717.021.729.781.007.455-.023.912.007 1.365.033.492-.112.7-.637.694a355.447 355.447 0 0 0-6.83-.002c-.466.004-.61-.164-.605-.63.018-1.912.007-3.823.007-5.734M168.48 6.283c0-1.816-.006-3.632.003-5.448.003-.674.017-.687.687-.69 2.105-.006 4.21.008 6.315-.01.469-.004.717.119.69.643a19.356 19.356 0 0 0-.003 1.518c.013.455-.182.64-.629.633-.935-.015-1.871-.005-2.807-.002-1.127.004-1.188.07-1.152 1.213.024.77.054.807.8.819.673.01 1.345 0 2.018.003.832.005.835.008.844.812.006.477-.012.953.002 1.429.01.386-.163.526-.529.52-.818-.01-1.637.015-2.455-.005-.493-.012-.658.212-.686.691-.078 1.347-.054 1.388 1.293 1.388.994 0 1.989.02 2.982-.008.461-.012.626.157.6.618-.027.504-.032 1.014.002 1.517.033.516-.181.673-.664.666-1.461-.02-2.923-.006-4.385-.006-.76 0-1.521-.02-2.28.006-.497.017-.66-.185-.654-.681.02-1.875.008-3.75.008-5.626M82.693 12.692c-2.874.022-4.918-.789-6.179-2.933-2.243-3.814-.33-8.892 4.345-9.65 2.035-.331 3.825.1 5.502 1.226.45.302.497.568.182.998-.35.476-.638.996-.944 1.502-.158.26-.32.28-.574.104-.638-.442-1.318-.78-2.1-.937-1.787-.36-3.415.517-3.856 2.158-.51 1.897.295 3.904 2.04 4.452 1.29.406 2.468.103 3.553-.646.289-.2.592-.585.858-.56.355.032.495.532.726.832.198.258.382.527.567.795.424.612.419.608-.122 1.056-1.285 1.063-2.753 1.623-3.998 1.603M106.309 13.187c-2.904.01-4.908-.84-6.167-3.03-1.871-3.258-.878-8.154 3.224-9.593 2.27-.796 4.419-.491 6.403.891.659.459.646.515.23 1.224-.259.44-.53.873-.78 1.32-.21.379-.413.408-.764.133a4.495 4.495 0 0 0-1.833-.86c-1.497-.328-2.88.175-3.569 1.334-.798 1.344-.684 3.22.27 4.433.864 1.098 2.371 1.463 3.784.923.588-.224 1.136-.532 1.587-.97.352-.34.53-.216.746.125.306.482.615.966.97 1.41.322.402.234.66-.127.969-1.296 1.112-2.767 1.71-3.974 1.69"/>
        <path fill="#252061" d="M53.084 21.573c.011-2.746 2.158-4.859 4.921-4.842 2.752.016 4.861 2.153 4.88 4.898.016 2.478-1.948 4.906-4.89 4.91-3.163.004-5.05-2.681-4.91-4.966M57.99 2.885c2.757.007 4.895 2.14 4.895 4.883a4.899 4.899 0 0 1-4.969 4.924c-2.702-.017-4.85-2.215-4.839-4.955.01-2.755 2.141-4.86 4.914-4.852"/>
        <path fill="#24A3D3" d="M89.426.11c1.445-.404 2.064.35 2.518 1.558.447 1.188 1.073 2.312 1.624 3.463.063.13.112.328.264.335.216.01.252-.222.306-.373.496-1.393.98-2.791 1.47-4.187.28-.794.282-.794 1.124-.796.729-.002 1.458.01 2.187-.004.318-.005.364.13.266.378-.108.275-.223.548-.334.822-1.063 2.638-2.124 5.277-3.19 7.913-.268.66-.59 1.292-.979 1.897-1.37 2.132-4.133 1.786-5.648.805-.243-.157-.228-.308-.103-.512.216-.356.417-.722.643-1.072.192-.297.268-.724.593-.865.325-.142.55.294.87.367.176.04.354.103.532.106.66.012.927-.381.63-.968-.684-1.352-1.388-2.693-2.09-4.036-.745-1.421-1.502-2.836-2.241-4.26-.283-.543-.268-.555.374-.57.394-.009.79-.002 1.184-.002M125.78 6.83c0-1.862.014-3.724-.01-5.586-.007-.51.155-.688.662-.665.774.035 1.55.018 2.327.006.344-.005.479.14.471.482-.013.6-.002 1.201-.002 1.802 0 3.184.002 6.368-.001 9.552 0 .828-.007.83-.83.836-.657.004-1.315-.027-1.97.01-.51.028-.664-.163-.657-.669.024-1.922.01-3.845.01-5.767"/>
    </g>
</svg>
