<svg xmlns="http://www.w3.org/2000/svg" width="22" height="20" viewBox="0 0 22 20">
    <path fill="#FFF" fill-rule="evenodd" d="M12 19c0-.552-.492-1-1.099-1H1.1C.492 18 0 18.448 0 19s.492 1 1.099 1H10.9c.607 0 1.099-.448 1.099-1m10-6c0-.552-.493-1-1.1-1H1.1c-.607 0-1.1.448-1.1 1s.493 1 1.1 1h19.8c.607 0 1.1-.448 1.1-1m0-6c0-.552-.493-1-1.1-1H1.1C.493 6 0 6.448 0 7s.493 1 1.1 1h19.8c.607 0 1.1-.448 1.1-1m-1.1-5H1.1C.493 2 0 1.552 0 1s.493-1 1.1-1h19.8c.607 0 1.1.448 1.1 1s-.493 1-1.1 1"/>
</svg>
